<svg width="64" height="64" viewBox="0 0 64 64" fill="none" xmlns="http://www.w3.org/2000/svg">
<g clip-path="url(#clip0_6_340)">
<path d="M58.375 48.9241C55.9306 48.9241 53.8465 50.4917 53.0725 52.6741H37.3025C36.7366 51.0786 35.4705 49.8124 33.875 49.2466V45.3822H53.5794C56.681 45.3822 59.2044 42.8589 59.2044 39.7572V32.1043C59.2044 29.4051 57.293 27.1447 54.7529 26.6033V22.6047C57.293 22.0633 59.2044 19.8029 59.2044 17.1037V9.45081C59.2044 6.34918 56.681 3.82581 53.5794 3.82581H10.4206C7.319 3.82581 4.79563 6.34918 4.79563 9.45081V17.1037C4.79563 19.8029 6.707 22.0633 9.24712 22.6047V26.6033C6.707 27.1447 4.79563 29.4051 4.79563 32.1043V39.7572C4.79563 42.8589 7.319 45.3822 10.4206 45.3822H30.125V49.2466C28.5295 49.8124 27.2634 51.0786 26.6975 52.6741H10.9275C10.1535 50.4917 8.06938 48.9241 5.625 48.9241C2.52338 48.9241 0 51.4473 0 54.5491C0 57.6507 2.52338 60.1741 5.625 60.1741C8.06938 60.1741 10.1535 58.6064 10.9275 56.4241H26.6975C27.4715 58.6064 29.5556 60.1741 32 60.1741C34.4444 60.1741 36.5285 58.6064 37.3025 56.4241H53.0725C53.8465 58.6064 55.9306 60.1741 58.375 60.1741C61.4767 60.1741 64 57.6507 64 54.5491C64 51.4473 61.4767 48.9241 58.375 48.9241ZM51.0028 22.7287V26.4793H12.9972V22.7287H51.0028ZM8.54562 17.1037V9.45081C8.54562 8.41693 9.38675 7.57581 10.4206 7.57581H53.5794C54.6134 7.57581 55.4544 8.41693 55.4544 9.45081V17.1037C55.4544 18.1376 54.6134 18.9787 53.5794 18.9787H10.4206C9.38675 18.9787 8.54562 18.1377 8.54562 17.1037ZM8.54562 39.7572V32.1043C8.54562 31.0704 9.38675 30.2293 10.4206 30.2293H53.5794C54.6134 30.2293 55.4544 31.0704 55.4544 32.1043V39.7572C55.4544 40.7912 54.6134 41.6322 53.5794 41.6322H10.4206C9.38675 41.6322 8.54562 40.7911 8.54562 39.7572ZM5.625 56.4241C4.59113 56.4241 3.75 55.5829 3.75 54.5491C3.75 53.5151 4.59113 52.6741 5.625 52.6741C6.65887 52.6741 7.5 53.5151 7.5 54.5491C7.5 55.5829 6.65887 56.4241 5.625 56.4241ZM32 56.4241C30.9661 56.4241 30.125 55.5829 30.125 54.5491C30.125 53.5151 30.9661 52.6741 32 52.6741C33.034 52.6741 33.875 53.5151 33.875 54.5491C33.875 55.5829 33.034 56.4241 32 56.4241ZM58.375 56.4241C57.341 56.4241 56.5 55.5829 56.5 54.5491C56.5 53.5151 57.341 52.6741 58.375 52.6741C59.409 52.6741 60.25 53.5151 60.25 54.5491C60.25 55.5829 59.409 56.4241 58.375 56.4241Z" fill="url(#paint0_linear_6_340)"/>
<path d="M36.61 35.4839C36.4504 34.7154 35.8264 34.1137 35.0475 33.9967C34.2739 33.8804 33.4859 34.277 33.1188 34.9677C32.7503 35.661 32.8575 36.5255 33.3824 37.1091C33.9068 37.6921 34.7666 37.88 35.4886 37.5815C36.301 37.2457 36.7894 36.349 36.61 35.4839Z" fill="url(#paint1_linear_6_340)"/>
<path d="M44.11 35.4839C43.9503 34.7151 43.3261 34.1135 42.547 33.9966C41.7735 33.8805 40.9858 34.2771 40.6188 34.9676C40.2503 35.661 40.3575 36.5254 40.8824 37.1091C41.4068 37.6921 42.2666 37.88 42.9886 37.5815C43.8008 37.2456 44.2894 36.349 44.11 35.4839Z" fill="url(#paint2_linear_6_340)"/>
<path d="M51.6099 35.484C51.4503 34.7157 50.8264 34.1139 50.0478 33.9967C49.2741 33.8802 48.4858 34.277 48.1187 34.9677C47.7503 35.6609 47.8577 36.5258 48.3823 37.1092C48.9067 37.6922 49.7666 37.8801 50.4886 37.5816C51.3007 37.2457 51.7893 36.3491 51.6099 35.484Z" fill="url(#paint3_linear_6_340)"/>
<path d="M27.2718 34.0454H14.2407C13.2052 34.0454 12.3657 34.8849 12.3657 35.9204C12.3657 36.9559 13.2052 37.7954 14.2407 37.7954H27.2718C28.3073 37.7954 29.1468 36.9559 29.1468 35.9204C29.1468 34.8849 28.3073 34.0454 27.2718 34.0454Z" fill="url(#paint4_linear_6_340)"/>
<path d="M32.9338 13.5641C33.0808 14.3326 33.7263 14.9354 34.4958 15.0513C35.269 15.1677 36.0585 14.7711 36.4249 14.0802C36.7913 13.3894 36.6884 12.5183 36.1611 11.9377C35.6348 11.3579 34.7783 11.1663 34.0549 11.4652C33.2425 11.8011 32.7544 12.6992 32.9338 13.5641Z" fill="url(#paint5_linear_6_340)"/>
<path d="M40.4337 13.5641C40.5837 14.3482 41.2531 14.9597 42.0416 15.0576C42.8328 15.1558 43.6285 14.7222 43.9661 13.9981C44.3043 13.2727 44.1451 12.3937 43.565 11.8392C43.0222 11.3202 42.1965 11.1816 41.5121 11.4844C40.7242 11.8331 40.2578 12.7157 40.4337 13.5641Z" fill="url(#paint6_linear_6_340)"/>
<path d="M47.9338 13.5641C48.0808 14.3326 48.7263 14.9354 49.4958 15.0513C50.2688 15.1677 51.0586 14.7709 51.4249 14.0802C51.7914 13.3891 51.6886 12.5186 51.1611 11.9377C50.6348 11.3579 49.7783 11.1663 49.0549 11.4652C48.2425 11.8011 47.7544 12.6992 47.9338 13.5641Z" fill="url(#paint7_linear_6_340)"/>
<path d="M14.2407 15.0453H27.2718C28.3073 15.0453 29.1468 14.2058 29.1468 13.1703C29.1468 12.1348 28.3073 11.2953 27.2718 11.2953H14.2407C13.2052 11.2953 12.3657 12.1348 12.3657 13.1703C12.3657 14.2058 13.2052 15.0453 14.2407 15.0453Z" fill="url(#paint8_linear_6_340)"/>
</g>
<defs>
<linearGradient id="paint0_linear_6_340" x1="32" y1="3.82581" x2="32" y2="60.1741" gradientUnits="userSpaceOnUse">
<stop offset="0.8125" stop-color="#2351DC"/>
<stop offset="1" stop-color="#2351DC" stop-opacity="0"/>
</linearGradient>
<linearGradient id="paint1_linear_6_340" x1="34.7741" y1="33.9766" x2="34.7741" y2="37.7217" gradientUnits="userSpaceOnUse">
<stop offset="0.8125" stop-color="#2351DC"/>
<stop offset="1" stop-color="#2351DC" stop-opacity="0"/>
</linearGradient>
<linearGradient id="paint2_linear_6_340" x1="42.2741" y1="33.9766" x2="42.2741" y2="37.7216" gradientUnits="userSpaceOnUse">
<stop offset="0.8125" stop-color="#2351DC"/>
<stop offset="1" stop-color="#2351DC" stop-opacity="0"/>
</linearGradient>
<linearGradient id="paint3_linear_6_340" x1="49.7741" y1="33.9766" x2="49.7741" y2="37.7218" gradientUnits="userSpaceOnUse">
<stop offset="0.8125" stop-color="#2351DC"/>
<stop offset="1" stop-color="#2351DC" stop-opacity="0"/>
</linearGradient>
<linearGradient id="paint4_linear_6_340" x1="20.7563" y1="34.0454" x2="20.7563" y2="37.7954" gradientUnits="userSpaceOnUse">
<stop offset="0.8125" stop-color="#2351DC"/>
<stop offset="1" stop-color="#2351DC" stop-opacity="0"/>
</linearGradient>
<linearGradient id="paint5_linear_6_340" x1="34.7695" y1="11.3256" x2="34.7695" y2="15.0714" gradientUnits="userSpaceOnUse">
<stop offset="0.8125" stop-color="#2351DC"/>
<stop offset="1" stop-color="#2351DC" stop-opacity="0"/>
</linearGradient>
<linearGradient id="paint6_linear_6_340" x1="42.2692" y1="11.326" x2="42.2692" y2="15.0714" gradientUnits="userSpaceOnUse">
<stop offset="0.8125" stop-color="#2351DC"/>
<stop offset="1" stop-color="#2351DC" stop-opacity="0"/>
</linearGradient>
<linearGradient id="paint7_linear_6_340" x1="49.7695" y1="11.3256" x2="49.7695" y2="15.0714" gradientUnits="userSpaceOnUse">
<stop offset="0.8125" stop-color="#2351DC"/>
<stop offset="1" stop-color="#2351DC" stop-opacity="0"/>
</linearGradient>
<linearGradient id="paint8_linear_6_340" x1="20.7563" y1="11.2953" x2="20.7563" y2="15.0453" gradientUnits="userSpaceOnUse">
<stop offset="0.8125" stop-color="#2351DC"/>
<stop offset="1" stop-color="#2351DC" stop-opacity="0"/>
</linearGradient>
<clipPath id="clip0_6_340">
<rect width="64" height="64" fill="white"/>
</clipPath>
</defs>
</svg>
