<svg width="13" height="10" viewBox="0 0 13 10" fill="none" xmlns="http://www.w3.org/2000/svg">
<path d="M10.5527 2.10563L9.99999 2.382V1C9.99999 0.734784 9.89464 0.480429 9.7071 0.292892C9.51957 0.105356 9.26521 0 9 0H0.999999C0.734783 0 0.480429 0.105356 0.292892 0.292892C0.105356 0.480429 0 0.734784 0 1V9C0 9.26522 0.105356 9.51957 0.292892 9.70711C0.480429 9.89464 0.734783 10 0.999999 10H9C9.26521 10 9.51957 9.89464 9.7071 9.70711C9.89464 9.51957 9.99999 9.26522 9.99999 9V4.618L11.4472 3.89437C11.5657 3.83627 11.6716 3.75528 11.7586 3.65608C11.8457 3.55688 11.9122 3.44143 11.9544 3.31638C11.9966 3.19134 12.0137 3.05918 12.0046 2.92751C11.9955 2.79585 11.9604 2.66729 11.9014 2.54925C11.8423 2.43121 11.7605 2.32602 11.6607 2.23975C11.5608 2.15347 11.4448 2.08783 11.3194 2.04659C11.1941 2.00535 11.0618 1.98933 10.9302 1.99946C10.7986 2.0096 10.6703 2.04568 10.5527 2.10563ZM8 8H2V2H8V3.382L5.1975 4.78325L4.70712 4.29288C4.51958 4.10533 4.26522 3.99997 4 3.99997C3.73477 3.99997 3.48041 4.10533 3.29287 4.29288C3.10533 4.48042 2.99997 4.73478 2.99997 5C2.99997 5.26522 3.10533 5.51958 3.29287 5.70712L4.29287 6.70712C4.44127 6.85558 4.63261 6.95357 4.83979 6.98722C5.04698 7.02087 5.2595 6.98848 5.44725 6.89462L8 5.618V8Z" fill="url(#paint0_linear_6_322)"/>
<defs>
<linearGradient id="paint0_linear_6_322" x1="6.00348" y1="0" x2="6.00348" y2="10" gradientUnits="userSpaceOnUse">
<stop offset="0.875" stop-color="#2351DC"/>
<stop offset="1" stop-color="#2351DC" stop-opacity="0"/>
</linearGradient>
</defs>
</svg>
